<svg width="512" height="512" xmlns="http://www.w3.org/2000/svg">
 <title/>

 <g>
  <title>background</title>
  <rect fill="none" id="canvas_background" height="402" width="582" y="-1" x="-1"/>
 </g>
 <g>
  <title>Layer 1</title>
  <path id="svg_1" fill="#e13741" d="m425.706,80.441l0,0l-5.656,-5.656a8,8 0 0 0 -11.314,0l-5.657,5.657a8,8 0 0 0 0,11.313l-11.315,-11.313a8,8 0 0 0 -11.313,0l-5.657,5.658a8,8 0 0 0 0,11.313l16.97,16.971l0,0c74.861,74.86 74.861,196.669 0,271.529a192,192 0 0 1 -271.529,0c-74.86,-74.86 -74.86,-196.669 0,-271.529l0,0l5.657,-5.657a8,8 0 0 0 0,-11.314l-5.657,-5.656a8,8 0 0 0 -11.313,0l-5.657,5.656l0,0l16.97,-16.97a8,8 0 0 0 0,-11.314l-5.656,-5.657a8,8 0 0 0 -11.314,0l-16.971,16.97l0,0a240,240 0 1 0 339.412,339.411a240,240 0 0 0 0,-339.412z"/>
  <path id="svg_2" fill="#e13741" d="m103.057,258.538a8,8 0 0 0 8,8l8,0a8,8 0 0 0 8,-8l0,16a8,8 0 0 0 8,8l8,0a8,8 0 0 0 8,-8l0,-24a104.118,104.118 0 0 1 104,-104l8,0a8,8 0 0 0 8,-8l0,-8a8,8 0 0 0 -8,-8l16,0a8,8 0 0 0 8,-8l0,-8a8,8 0 0 0 -8,-8l-24,0c-83.813,0 -152,68.186 -152,152l0,8z"/>
  <path id="svg_3" fill="#e13741" d="m231.057,354.538a8,8 0 0 0 -8,8l0,8a8,8 0 0 0 8,8l16,0a8,8 0 0 0 -8,8l0,8a8,8 0 0 0 8,8l8,0c83.813,0 152,-68.187 152,-152l0,-24a8,8 0 0 0 -8,-8l-8,0a8,8 0 0 0 -8,8l0,16a8,8 0 0 0 -8,-8l-8,0a8,8 0 0 0 -8,8l0,8a104.118,104.118 0 0 1 -104,104l-24,0z"/>
  <rect id="svg_4" y="178.538" x="383.057" width="24" ry="8" rx="8" height="24" fill="#e13741"/>
  <rect id="svg_5" y="290.538" x="103.057" width="24" ry="8" rx="8" height="24" fill="#e13741"/>
  <rect id="svg_6" y="34.538" x="135.057" width="24" ry="8" rx="8" height="24" fill="#e13741"/>
  <rect id="svg_7" y="274.948003" x="402.143002" width="22.627" transform="rotate(-45 70.40000152587889,255.03700256347656) " ry="8" rx="8" height="45.255" fill="#e13741"/>
  <rect id="svg_8" y="623.535996" x="-48.933998" width="45.255" transform="rotate(-45 -217.3639984130859,248.31199645996094) " ry="8" rx="8" height="22.627" fill="#e13741"/>
  <path id="svg_10" transform="rotate(135 1268.2255859375,732.5469970703126) " fill="#784119" d="m1253.598022,604.324995l29.255,0a8,8 0 0 1 8,8l0,248.444a0,0 0 0 1 0,0l-45.255,0a0,0 0 0 1 0,0l0,-248.444a8,8 0 0 1 8,-8z"/>
 </g>
</svg>